<?xml version="1.0" encoding="utf-8" standalone="no"?>
<!DOCTYPE svg PUBLIC "-//W3C//DTD SVG 1.1//EN"
  "http://www.w3.org/Graphics/SVG/1.1/DTD/svg11.dtd">
<svg xmlns:xlink="http://www.w3.org/1999/xlink" width="432pt" height="432pt" viewBox="0 0 432 432" xmlns="http://www.w3.org/2000/svg" version="1.1">
 <metadata>
  <rdf:RDF xmlns:dc="http://purl.org/dc/elements/1.1/" xmlns:cc="http://creativecommons.org/ns#" xmlns:rdf="http://www.w3.org/1999/02/22-rdf-syntax-ns#">
   <cc:Work>
    <dc:type rdf:resource="http://purl.org/dc/dcmitype/StillImage"/>
    <dc:date>2025-05-14T18:15:18.455891</dc:date>
    <dc:format>image/svg+xml</dc:format>
    <dc:creator>
     <cc:Agent>
      <dc:title>Matplotlib v3.9.1, https://matplotlib.org/</dc:title>
     </cc:Agent>
    </dc:creator>
   </cc:Work>
  </rdf:RDF>
 </metadata>
 <defs>
  <style type="text/css">*{stroke-linejoin: round; stroke-linecap: butt}</style>
 </defs>
 <g id="figure_1">
  <g id="patch_1">
   <path d="M 0 432 
L 432 432 
L 432 0 
L 0 0 
z
" style="fill: #ffffff"/>
  </g>
  <g id="axes_1">
   <g id="patch_2">
    <path d="M 54.120294 385.72 
L 414.169706 385.72 
L 414.169706 14.76 
L 54.120294 14.76 
z
" style="fill: #ffffff"/>
   </g>
   <g id="matplotlib.axis_1">
    <g id="xtick_1">
     <g id="line2d_1">
      <path d="M 123.220686 385.72 
L 123.220686 14.76 
" clip-path="url(#p65d7da9564)" style="fill: none; stroke: #b0b0b0; stroke-width: 0.8; stroke-linecap: square"/>
     </g>
     <g id="line2d_2">
      <defs>
       <path id="m5f6c9071a7" d="M 0 0 
L 0 3.5 
" style="stroke: #000000; stroke-width: 0.8"/>
      </defs>
      <g>
       <use xlink:href="#m5f6c9071a7" x="123.220686" y="385.72" style="stroke: #000000; stroke-width: 0.8"/>
      </g>
     </g>
     <g id="text_1">
      <!-- 0.2 -->
      <g transform="translate(115.269124 400.318437) scale(0.1 -0.1)">
       <defs>
        <path id="DejaVuSans-30" d="M 2034 4250 
Q 1547 4250 1301 3770 
Q 1056 3291 1056 2328 
Q 1056 1369 1301 889 
Q 1547 409 2034 409 
Q 2525 409 2770 889 
Q 3016 1369 3016 2328 
Q 3016 3291 2770 3770 
Q 2525 4250 2034 4250 
z
M 2034 4750 
Q 2819 4750 3233 4129 
Q 3647 3509 3647 2328 
Q 3647 1150 3233 529 
Q 2819 -91 2034 -91 
Q 1250 -91 836 529 
Q 422 1150 422 2328 
Q 422 3509 836 4129 
Q 1250 4750 2034 4750 
z
" transform="scale(0.015625)"/>
        <path id="DejaVuSans-2e" d="M 684 794 
L 1344 794 
L 1344 0 
L 684 0 
L 684 794 
z
" transform="scale(0.015625)"/>
        <path id="DejaVuSans-32" d="M 1228 531 
L 3431 531 
L 3431 0 
L 469 0 
L 469 531 
Q 828 903 1448 1529 
Q 2069 2156 2228 2338 
Q 2531 2678 2651 2914 
Q 2772 3150 2772 3378 
Q 2772 3750 2511 3984 
Q 2250 4219 1831 4219 
Q 1534 4219 1204 4116 
Q 875 4013 500 3803 
L 500 4441 
Q 881 4594 1212 4672 
Q 1544 4750 1819 4750 
Q 2544 4750 2975 4387 
Q 3406 4025 3406 3419 
Q 3406 3131 3298 2873 
Q 3191 2616 2906 2266 
Q 2828 2175 2409 1742 
Q 1991 1309 1228 531 
z
" transform="scale(0.015625)"/>
       </defs>
       <use xlink:href="#DejaVuSans-30"/>
       <use xlink:href="#DejaVuSans-2e" x="63.623047"/>
       <use xlink:href="#DejaVuSans-32" x="95.410156"/>
      </g>
     </g>
    </g>
    <g id="xtick_2">
     <g id="line2d_3">
      <path d="M 195.957941 385.72 
L 195.957941 14.76 
" clip-path="url(#p65d7da9564)" style="fill: none; stroke: #b0b0b0; stroke-width: 0.8; stroke-linecap: square"/>
     </g>
     <g id="line2d_4">
      <g>
       <use xlink:href="#m5f6c9071a7" x="195.957941" y="385.72" style="stroke: #000000; stroke-width: 0.8"/>
      </g>
     </g>
     <g id="text_2">
      <!-- 0.4 -->
      <g transform="translate(188.006379 400.318437) scale(0.1 -0.1)">
       <defs>
        <path id="DejaVuSans-34" d="M 2419 4116 
L 825 1625 
L 2419 1625 
L 2419 4116 
z
M 2253 4666 
L 3047 4666 
L 3047 1625 
L 3713 1625 
L 3713 1100 
L 3047 1100 
L 3047 0 
L 2419 0 
L 2419 1100 
L 313 1100 
L 313 1709 
L 2253 4666 
z
" transform="scale(0.015625)"/>
       </defs>
       <use xlink:href="#DejaVuSans-30"/>
       <use xlink:href="#DejaVuSans-2e" x="63.623047"/>
       <use xlink:href="#DejaVuSans-34" x="95.410156"/>
      </g>
     </g>
    </g>
    <g id="xtick_3">
     <g id="line2d_5">
      <path d="M 268.695196 385.72 
L 268.695196 14.76 
" clip-path="url(#p65d7da9564)" style="fill: none; stroke: #b0b0b0; stroke-width: 0.8; stroke-linecap: square"/>
     </g>
     <g id="line2d_6">
      <g>
       <use xlink:href="#m5f6c9071a7" x="268.695196" y="385.72" style="stroke: #000000; stroke-width: 0.8"/>
      </g>
     </g>
     <g id="text_3">
      <!-- 0.6 -->
      <g transform="translate(260.743634 400.318437) scale(0.1 -0.1)">
       <defs>
        <path id="DejaVuSans-36" d="M 2113 2584 
Q 1688 2584 1439 2293 
Q 1191 2003 1191 1497 
Q 1191 994 1439 701 
Q 1688 409 2113 409 
Q 2538 409 2786 701 
Q 3034 994 3034 1497 
Q 3034 2003 2786 2293 
Q 2538 2584 2113 2584 
z
M 3366 4563 
L 3366 3988 
Q 3128 4100 2886 4159 
Q 2644 4219 2406 4219 
Q 1781 4219 1451 3797 
Q 1122 3375 1075 2522 
Q 1259 2794 1537 2939 
Q 1816 3084 2150 3084 
Q 2853 3084 3261 2657 
Q 3669 2231 3669 1497 
Q 3669 778 3244 343 
Q 2819 -91 2113 -91 
Q 1303 -91 875 529 
Q 447 1150 447 2328 
Q 447 3434 972 4092 
Q 1497 4750 2381 4750 
Q 2619 4750 2861 4703 
Q 3103 4656 3366 4563 
z
" transform="scale(0.015625)"/>
       </defs>
       <use xlink:href="#DejaVuSans-30"/>
       <use xlink:href="#DejaVuSans-2e" x="63.623047"/>
       <use xlink:href="#DejaVuSans-36" x="95.410156"/>
      </g>
     </g>
    </g>
    <g id="xtick_4">
     <g id="line2d_7">
      <path d="M 341.432451 385.72 
L 341.432451 14.76 
" clip-path="url(#p65d7da9564)" style="fill: none; stroke: #b0b0b0; stroke-width: 0.8; stroke-linecap: square"/>
     </g>
     <g id="line2d_8">
      <g>
       <use xlink:href="#m5f6c9071a7" x="341.432451" y="385.72" style="stroke: #000000; stroke-width: 0.8"/>
      </g>
     </g>
     <g id="text_4">
      <!-- 0.8 -->
      <g transform="translate(333.480888 400.318437) scale(0.1 -0.1)">
       <defs>
        <path id="DejaVuSans-38" d="M 2034 2216 
Q 1584 2216 1326 1975 
Q 1069 1734 1069 1313 
Q 1069 891 1326 650 
Q 1584 409 2034 409 
Q 2484 409 2743 651 
Q 3003 894 3003 1313 
Q 3003 1734 2745 1975 
Q 2488 2216 2034 2216 
z
M 1403 2484 
Q 997 2584 770 2862 
Q 544 3141 544 3541 
Q 544 4100 942 4425 
Q 1341 4750 2034 4750 
Q 2731 4750 3128 4425 
Q 3525 4100 3525 3541 
Q 3525 3141 3298 2862 
Q 3072 2584 2669 2484 
Q 3125 2378 3379 2068 
Q 3634 1759 3634 1313 
Q 3634 634 3220 271 
Q 2806 -91 2034 -91 
Q 1263 -91 848 271 
Q 434 634 434 1313 
Q 434 1759 690 2068 
Q 947 2378 1403 2484 
z
M 1172 3481 
Q 1172 3119 1398 2916 
Q 1625 2713 2034 2713 
Q 2441 2713 2670 2916 
Q 2900 3119 2900 3481 
Q 2900 3844 2670 4047 
Q 2441 4250 2034 4250 
Q 1625 4250 1398 4047 
Q 1172 3844 1172 3481 
z
" transform="scale(0.015625)"/>
       </defs>
       <use xlink:href="#DejaVuSans-30"/>
       <use xlink:href="#DejaVuSans-2e" x="63.623047"/>
       <use xlink:href="#DejaVuSans-38" x="95.410156"/>
      </g>
     </g>
    </g>
    <g id="xtick_5">
     <g id="line2d_9">
      <path d="M 414.169706 385.72 
L 414.169706 14.76 
" clip-path="url(#p65d7da9564)" style="fill: none; stroke: #b0b0b0; stroke-width: 0.8; stroke-linecap: square"/>
     </g>
     <g id="line2d_10">
      <g>
       <use xlink:href="#m5f6c9071a7" x="414.169706" y="385.72" style="stroke: #000000; stroke-width: 0.8"/>
      </g>
     </g>
     <g id="text_5">
      <!-- 1.0 -->
      <g transform="translate(406.218143 400.318437) scale(0.1 -0.1)">
       <defs>
        <path id="DejaVuSans-31" d="M 794 531 
L 1825 531 
L 1825 4091 
L 703 3866 
L 703 4441 
L 1819 4666 
L 2450 4666 
L 2450 531 
L 3481 531 
L 3481 0 
L 794 0 
L 794 531 
z
" transform="scale(0.015625)"/>
       </defs>
       <use xlink:href="#DejaVuSans-31"/>
       <use xlink:href="#DejaVuSans-2e" x="63.623047"/>
       <use xlink:href="#DejaVuSans-30" x="95.410156"/>
      </g>
     </g>
    </g>
    <g id="text_6">
     <!-- d (normalized density) -->
     <g transform="translate(143.9525 418.555625) scale(0.16 -0.16)">
      <defs>
       <path id="DejaVuSans-64" d="M 2906 2969 
L 2906 4863 
L 3481 4863 
L 3481 0 
L 2906 0 
L 2906 525 
Q 2725 213 2448 61 
Q 2172 -91 1784 -91 
Q 1150 -91 751 415 
Q 353 922 353 1747 
Q 353 2572 751 3078 
Q 1150 3584 1784 3584 
Q 2172 3584 2448 3432 
Q 2725 3281 2906 2969 
z
M 947 1747 
Q 947 1113 1208 752 
Q 1469 391 1925 391 
Q 2381 391 2643 752 
Q 2906 1113 2906 1747 
Q 2906 2381 2643 2742 
Q 2381 3103 1925 3103 
Q 1469 3103 1208 2742 
Q 947 2381 947 1747 
z
" transform="scale(0.015625)"/>
       <path id="DejaVuSans-20" transform="scale(0.015625)"/>
       <path id="DejaVuSans-28" d="M 1984 4856 
Q 1566 4138 1362 3434 
Q 1159 2731 1159 2009 
Q 1159 1288 1364 580 
Q 1569 -128 1984 -844 
L 1484 -844 
Q 1016 -109 783 600 
Q 550 1309 550 2009 
Q 550 2706 781 3412 
Q 1013 4119 1484 4856 
L 1984 4856 
z
" transform="scale(0.015625)"/>
       <path id="DejaVuSans-6e" d="M 3513 2113 
L 3513 0 
L 2938 0 
L 2938 2094 
Q 2938 2591 2744 2837 
Q 2550 3084 2163 3084 
Q 1697 3084 1428 2787 
Q 1159 2491 1159 1978 
L 1159 0 
L 581 0 
L 581 3500 
L 1159 3500 
L 1159 2956 
Q 1366 3272 1645 3428 
Q 1925 3584 2291 3584 
Q 2894 3584 3203 3211 
Q 3513 2838 3513 2113 
z
" transform="scale(0.015625)"/>
       <path id="DejaVuSans-6f" d="M 1959 3097 
Q 1497 3097 1228 2736 
Q 959 2375 959 1747 
Q 959 1119 1226 758 
Q 1494 397 1959 397 
Q 2419 397 2687 759 
Q 2956 1122 2956 1747 
Q 2956 2369 2687 2733 
Q 2419 3097 1959 3097 
z
M 1959 3584 
Q 2709 3584 3137 3096 
Q 3566 2609 3566 1747 
Q 3566 888 3137 398 
Q 2709 -91 1959 -91 
Q 1206 -91 779 398 
Q 353 888 353 1747 
Q 353 2609 779 3096 
Q 1206 3584 1959 3584 
z
" transform="scale(0.015625)"/>
       <path id="DejaVuSans-72" d="M 2631 2963 
Q 2534 3019 2420 3045 
Q 2306 3072 2169 3072 
Q 1681 3072 1420 2755 
Q 1159 2438 1159 1844 
L 1159 0 
L 581 0 
L 581 3500 
L 1159 3500 
L 1159 2956 
Q 1341 3275 1631 3429 
Q 1922 3584 2338 3584 
Q 2397 3584 2469 3576 
Q 2541 3569 2628 3553 
L 2631 2963 
z
" transform="scale(0.015625)"/>
       <path id="DejaVuSans-6d" d="M 3328 2828 
Q 3544 3216 3844 3400 
Q 4144 3584 4550 3584 
Q 5097 3584 5394 3201 
Q 5691 2819 5691 2113 
L 5691 0 
L 5113 0 
L 5113 2094 
Q 5113 2597 4934 2840 
Q 4756 3084 4391 3084 
Q 3944 3084 3684 2787 
Q 3425 2491 3425 1978 
L 3425 0 
L 2847 0 
L 2847 2094 
Q 2847 2600 2669 2842 
Q 2491 3084 2119 3084 
Q 1678 3084 1418 2786 
Q 1159 2488 1159 1978 
L 1159 0 
L 581 0 
L 581 3500 
L 1159 3500 
L 1159 2956 
Q 1356 3278 1631 3431 
Q 1906 3584 2284 3584 
Q 2666 3584 2933 3390 
Q 3200 3197 3328 2828 
z
" transform="scale(0.015625)"/>
       <path id="DejaVuSans-61" d="M 2194 1759 
Q 1497 1759 1228 1600 
Q 959 1441 959 1056 
Q 959 750 1161 570 
Q 1363 391 1709 391 
Q 2188 391 2477 730 
Q 2766 1069 2766 1631 
L 2766 1759 
L 2194 1759 
z
M 3341 1997 
L 3341 0 
L 2766 0 
L 2766 531 
Q 2569 213 2275 61 
Q 1981 -91 1556 -91 
Q 1019 -91 701 211 
Q 384 513 384 1019 
Q 384 1609 779 1909 
Q 1175 2209 1959 2209 
L 2766 2209 
L 2766 2266 
Q 2766 2663 2505 2880 
Q 2244 3097 1772 3097 
Q 1472 3097 1187 3025 
Q 903 2953 641 2809 
L 641 3341 
Q 956 3463 1253 3523 
Q 1550 3584 1831 3584 
Q 2591 3584 2966 3190 
Q 3341 2797 3341 1997 
z
" transform="scale(0.015625)"/>
       <path id="DejaVuSans-6c" d="M 603 4863 
L 1178 4863 
L 1178 0 
L 603 0 
L 603 4863 
z
" transform="scale(0.015625)"/>
       <path id="DejaVuSans-69" d="M 603 3500 
L 1178 3500 
L 1178 0 
L 603 0 
L 603 3500 
z
M 603 4863 
L 1178 4863 
L 1178 4134 
L 603 4134 
L 603 4863 
z
" transform="scale(0.015625)"/>
       <path id="DejaVuSans-7a" d="M 353 3500 
L 3084 3500 
L 3084 2975 
L 922 459 
L 3084 459 
L 3084 0 
L 275 0 
L 275 525 
L 2438 3041 
L 353 3041 
L 353 3500 
z
" transform="scale(0.015625)"/>
       <path id="DejaVuSans-65" d="M 3597 1894 
L 3597 1613 
L 953 1613 
Q 991 1019 1311 708 
Q 1631 397 2203 397 
Q 2534 397 2845 478 
Q 3156 559 3463 722 
L 3463 178 
Q 3153 47 2828 -22 
Q 2503 -91 2169 -91 
Q 1331 -91 842 396 
Q 353 884 353 1716 
Q 353 2575 817 3079 
Q 1281 3584 2069 3584 
Q 2775 3584 3186 3129 
Q 3597 2675 3597 1894 
z
M 3022 2063 
Q 3016 2534 2758 2815 
Q 2500 3097 2075 3097 
Q 1594 3097 1305 2825 
Q 1016 2553 972 2059 
L 3022 2063 
z
" transform="scale(0.015625)"/>
       <path id="DejaVuSans-73" d="M 2834 3397 
L 2834 2853 
Q 2591 2978 2328 3040 
Q 2066 3103 1784 3103 
Q 1356 3103 1142 2972 
Q 928 2841 928 2578 
Q 928 2378 1081 2264 
Q 1234 2150 1697 2047 
L 1894 2003 
Q 2506 1872 2764 1633 
Q 3022 1394 3022 966 
Q 3022 478 2636 193 
Q 2250 -91 1575 -91 
Q 1294 -91 989 -36 
Q 684 19 347 128 
L 347 722 
Q 666 556 975 473 
Q 1284 391 1588 391 
Q 1994 391 2212 530 
Q 2431 669 2431 922 
Q 2431 1156 2273 1281 
Q 2116 1406 1581 1522 
L 1381 1569 
Q 847 1681 609 1914 
Q 372 2147 372 2553 
Q 372 3047 722 3315 
Q 1072 3584 1716 3584 
Q 2034 3584 2315 3537 
Q 2597 3491 2834 3397 
z
" transform="scale(0.015625)"/>
       <path id="DejaVuSans-74" d="M 1172 4494 
L 1172 3500 
L 2356 3500 
L 2356 3053 
L 1172 3053 
L 1172 1153 
Q 1172 725 1289 603 
Q 1406 481 1766 481 
L 2356 481 
L 2356 0 
L 1766 0 
Q 1100 0 847 248 
Q 594 497 594 1153 
L 594 3053 
L 172 3053 
L 172 3500 
L 594 3500 
L 594 4494 
L 1172 4494 
z
" transform="scale(0.015625)"/>
       <path id="DejaVuSans-79" d="M 2059 -325 
Q 1816 -950 1584 -1140 
Q 1353 -1331 966 -1331 
L 506 -1331 
L 506 -850 
L 844 -850 
Q 1081 -850 1212 -737 
Q 1344 -625 1503 -206 
L 1606 56 
L 191 3500 
L 800 3500 
L 1894 763 
L 2988 3500 
L 3597 3500 
L 2059 -325 
z
" transform="scale(0.015625)"/>
       <path id="DejaVuSans-29" d="M 513 4856 
L 1013 4856 
Q 1481 4119 1714 3412 
Q 1947 2706 1947 2009 
Q 1947 1309 1714 600 
Q 1481 -109 1013 -844 
L 513 -844 
Q 928 -128 1133 580 
Q 1338 1288 1338 2009 
Q 1338 2731 1133 3434 
Q 928 4138 513 4856 
z
" transform="scale(0.015625)"/>
      </defs>
      <use xlink:href="#DejaVuSans-64"/>
      <use xlink:href="#DejaVuSans-20" x="63.476562"/>
      <use xlink:href="#DejaVuSans-28" x="95.263672"/>
      <use xlink:href="#DejaVuSans-6e" x="134.277344"/>
      <use xlink:href="#DejaVuSans-6f" x="197.65625"/>
      <use xlink:href="#DejaVuSans-72" x="258.837891"/>
      <use xlink:href="#DejaVuSans-6d" x="298.201172"/>
      <use xlink:href="#DejaVuSans-61" x="395.613281"/>
      <use xlink:href="#DejaVuSans-6c" x="456.892578"/>
      <use xlink:href="#DejaVuSans-69" x="484.675781"/>
      <use xlink:href="#DejaVuSans-7a" x="512.458984"/>
      <use xlink:href="#DejaVuSans-65" x="564.949219"/>
      <use xlink:href="#DejaVuSans-64" x="626.472656"/>
      <use xlink:href="#DejaVuSans-20" x="689.949219"/>
      <use xlink:href="#DejaVuSans-64" x="721.736328"/>
      <use xlink:href="#DejaVuSans-65" x="785.212891"/>
      <use xlink:href="#DejaVuSans-6e" x="846.736328"/>
      <use xlink:href="#DejaVuSans-73" x="910.115234"/>
      <use xlink:href="#DejaVuSans-69" x="962.214844"/>
      <use xlink:href="#DejaVuSans-74" x="989.998047"/>
      <use xlink:href="#DejaVuSans-79" x="1029.207031"/>
      <use xlink:href="#DejaVuSans-29" x="1088.386719"/>
     </g>
    </g>
   </g>
   <g id="matplotlib.axis_2">
    <g id="ytick_1">
     <g id="line2d_11">
      <path d="M 54.120294 378.446275 
L 414.169706 378.446275 
" clip-path="url(#p65d7da9564)" style="fill: none; stroke: #b0b0b0; stroke-width: 0.8; stroke-linecap: square"/>
     </g>
     <g id="line2d_12">
      <defs>
       <path id="m7ab3b80416" d="M 0 0 
L -3.5 0 
" style="stroke: #000000; stroke-width: 0.8"/>
      </defs>
      <g>
       <use xlink:href="#m7ab3b80416" x="54.120294" y="378.446275" style="stroke: #000000; stroke-width: 0.8"/>
      </g>
     </g>
     <g id="text_7">
      <!-- 1.0 -->
      <g transform="translate(31.217169 382.245493) scale(0.1 -0.1)">
       <use xlink:href="#DejaVuSans-31"/>
       <use xlink:href="#DejaVuSans-2e" x="63.623047"/>
       <use xlink:href="#DejaVuSans-30" x="95.410156"/>
      </g>
     </g>
    </g>
    <g id="ytick_2">
     <g id="line2d_13">
      <path d="M 54.120294 305.70902 
L 414.169706 305.70902 
" clip-path="url(#p65d7da9564)" style="fill: none; stroke: #b0b0b0; stroke-width: 0.8; stroke-linecap: square"/>
     </g>
     <g id="line2d_14">
      <g>
       <use xlink:href="#m7ab3b80416" x="54.120294" y="305.70902" style="stroke: #000000; stroke-width: 0.8"/>
      </g>
     </g>
     <g id="text_8">
      <!-- 1.2 -->
      <g transform="translate(31.217169 309.508238) scale(0.1 -0.1)">
       <use xlink:href="#DejaVuSans-31"/>
       <use xlink:href="#DejaVuSans-2e" x="63.623047"/>
       <use xlink:href="#DejaVuSans-32" x="95.410156"/>
      </g>
     </g>
    </g>
    <g id="ytick_3">
     <g id="line2d_15">
      <path d="M 54.120294 232.971765 
L 414.169706 232.971765 
" clip-path="url(#p65d7da9564)" style="fill: none; stroke: #b0b0b0; stroke-width: 0.8; stroke-linecap: square"/>
     </g>
     <g id="line2d_16">
      <g>
       <use xlink:href="#m7ab3b80416" x="54.120294" y="232.971765" style="stroke: #000000; stroke-width: 0.8"/>
      </g>
     </g>
     <g id="text_9">
      <!-- 1.4 -->
      <g transform="translate(31.217169 236.770983) scale(0.1 -0.1)">
       <use xlink:href="#DejaVuSans-31"/>
       <use xlink:href="#DejaVuSans-2e" x="63.623047"/>
       <use xlink:href="#DejaVuSans-34" x="95.410156"/>
      </g>
     </g>
    </g>
    <g id="ytick_4">
     <g id="line2d_17">
      <path d="M 54.120294 160.23451 
L 414.169706 160.23451 
" clip-path="url(#p65d7da9564)" style="fill: none; stroke: #b0b0b0; stroke-width: 0.8; stroke-linecap: square"/>
     </g>
     <g id="line2d_18">
      <g>
       <use xlink:href="#m7ab3b80416" x="54.120294" y="160.23451" style="stroke: #000000; stroke-width: 0.8"/>
      </g>
     </g>
     <g id="text_10">
      <!-- 1.6 -->
      <g transform="translate(31.217169 164.033729) scale(0.1 -0.1)">
       <use xlink:href="#DejaVuSans-31"/>
       <use xlink:href="#DejaVuSans-2e" x="63.623047"/>
       <use xlink:href="#DejaVuSans-36" x="95.410156"/>
      </g>
     </g>
    </g>
    <g id="ytick_5">
     <g id="line2d_19">
      <path d="M 54.120294 87.497255 
L 414.169706 87.497255 
" clip-path="url(#p65d7da9564)" style="fill: none; stroke: #b0b0b0; stroke-width: 0.8; stroke-linecap: square"/>
     </g>
     <g id="line2d_20">
      <g>
       <use xlink:href="#m7ab3b80416" x="54.120294" y="87.497255" style="stroke: #000000; stroke-width: 0.8"/>
      </g>
     </g>
     <g id="text_11">
      <!-- 1.8 -->
      <g transform="translate(31.217169 91.296474) scale(0.1 -0.1)">
       <use xlink:href="#DejaVuSans-31"/>
       <use xlink:href="#DejaVuSans-2e" x="63.623047"/>
       <use xlink:href="#DejaVuSans-38" x="95.410156"/>
      </g>
     </g>
    </g>
    <g id="ytick_6">
     <g id="line2d_21">
      <path d="M 54.120294 14.76 
L 414.169706 14.76 
" clip-path="url(#p65d7da9564)" style="fill: none; stroke: #b0b0b0; stroke-width: 0.8; stroke-linecap: square"/>
     </g>
     <g id="line2d_22">
      <g>
       <use xlink:href="#m7ab3b80416" x="54.120294" y="14.76" style="stroke: #000000; stroke-width: 0.8"/>
      </g>
     </g>
     <g id="text_12">
      <!-- 2.0 -->
      <g transform="translate(31.217169 18.559219) scale(0.1 -0.1)">
       <use xlink:href="#DejaVuSans-32"/>
       <use xlink:href="#DejaVuSans-2e" x="63.623047"/>
       <use xlink:href="#DejaVuSans-30" x="95.410156"/>
      </g>
     </g>
    </g>
    <g id="text_13">
     <!-- Recip$_{\alpha}$(d) -->
     <g transform="translate(23.857169 237.76) rotate(-90) scale(0.16 -0.16)">
      <defs>
       <path id="DejaVuSans-52" d="M 2841 2188 
Q 3044 2119 3236 1894 
Q 3428 1669 3622 1275 
L 4263 0 
L 3584 0 
L 2988 1197 
Q 2756 1666 2539 1819 
Q 2322 1972 1947 1972 
L 1259 1972 
L 1259 0 
L 628 0 
L 628 4666 
L 2053 4666 
Q 2853 4666 3247 4331 
Q 3641 3997 3641 3322 
Q 3641 2881 3436 2590 
Q 3231 2300 2841 2188 
z
M 1259 4147 
L 1259 2491 
L 2053 2491 
Q 2509 2491 2742 2702 
Q 2975 2913 2975 3322 
Q 2975 3731 2742 3939 
Q 2509 4147 2053 4147 
L 1259 4147 
z
" transform="scale(0.015625)"/>
       <path id="DejaVuSans-63" d="M 3122 3366 
L 3122 2828 
Q 2878 2963 2633 3030 
Q 2388 3097 2138 3097 
Q 1578 3097 1268 2742 
Q 959 2388 959 1747 
Q 959 1106 1268 751 
Q 1578 397 2138 397 
Q 2388 397 2633 464 
Q 2878 531 3122 666 
L 3122 134 
Q 2881 22 2623 -34 
Q 2366 -91 2075 -91 
Q 1284 -91 818 406 
Q 353 903 353 1747 
Q 353 2603 823 3093 
Q 1294 3584 2113 3584 
Q 2378 3584 2631 3529 
Q 2884 3475 3122 3366 
z
" transform="scale(0.015625)"/>
       <path id="DejaVuSans-70" d="M 1159 525 
L 1159 -1331 
L 581 -1331 
L 581 3500 
L 1159 3500 
L 1159 2969 
Q 1341 3281 1617 3432 
Q 1894 3584 2278 3584 
Q 2916 3584 3314 3078 
Q 3713 2572 3713 1747 
Q 3713 922 3314 415 
Q 2916 -91 2278 -91 
Q 1894 -91 1617 61 
Q 1341 213 1159 525 
z
M 3116 1747 
Q 3116 2381 2855 2742 
Q 2594 3103 2138 3103 
Q 1681 3103 1420 2742 
Q 1159 2381 1159 1747 
Q 1159 1113 1420 752 
Q 1681 391 2138 391 
Q 2594 391 2855 752 
Q 3116 1113 3116 1747 
z
" transform="scale(0.015625)"/>
       <path id="DejaVuSans-Oblique-3b1" d="M 2619 1628 
L 2622 2350 
Q 2625 3088 2069 3091 
Q 1653 3094 1394 2747 
Q 1069 2319 959 1747 
Q 825 1059 994 731 
Q 1169 397 1547 397 
Q 1966 397 2319 1063 
L 2619 1628 
z
M 2166 3578 
Q 3141 3594 3128 2584 
Q 3128 2584 3616 3500 
L 4128 3500 
L 3119 1603 
L 3109 919 
Q 3109 766 3194 638 
Q 3291 488 3391 488 
L 3669 488 
L 3575 0 
L 3228 0 
Q 2934 0 2722 263 
Q 2622 394 2619 669 
Q 2416 334 2066 50 
Q 1900 -81 1453 -78 
Q 722 -72 456 397 
Q 184 884 353 1747 
Q 534 2675 1009 3097 
Q 1544 3569 2166 3578 
z
" transform="scale(0.015625)"/>
      </defs>
      <use xlink:href="#DejaVuSans-52" transform="translate(0 0.015625)"/>
      <use xlink:href="#DejaVuSans-65" transform="translate(69.482422 0.015625)"/>
      <use xlink:href="#DejaVuSans-63" transform="translate(131.005859 0.015625)"/>
      <use xlink:href="#DejaVuSans-69" transform="translate(185.986328 0.015625)"/>
      <use xlink:href="#DejaVuSans-70" transform="translate(213.769531 0.015625)"/>
      <use xlink:href="#DejaVuSans-Oblique-3b1" transform="translate(278.203125 -16.390625) scale(0.7)"/>
      <use xlink:href="#DejaVuSans-28" transform="translate(327.080078 0.015625)"/>
      <use xlink:href="#DejaVuSans-64" transform="translate(366.09375 0.015625)"/>
      <use xlink:href="#DejaVuSans-29" transform="translate(429.570312 0.015625)"/>
     </g>
    </g>
   </g>
   <g id="line2d_23">
    <path d="M 54.120294 378.446275 
L 414.169706 378.446275 
L 414.169706 378.446275 
" clip-path="url(#p65d7da9564)" style="fill: none; stroke: #1f77b4; stroke-width: 1.5; stroke-linecap: square"/>
   </g>
   <g id="line2d_24">
    <path d="M 228.470261 -1 
L 232.883566 16.981184 
L 237.568893 35.141718 
L 242.254221 52.414858 
L 246.939549 68.864096 
L 251.624876 84.547006 
L 256.670614 100.6392 
L 261.716351 115.962602 
L 266.762089 130.571021 
L 271.807826 144.513356 
L 276.853564 157.834149 
L 282.259711 171.462822 
L 287.665859 184.470213 
L 293.072006 196.897859 
L 298.478153 208.783672 
L 303.8843 220.162333 
L 309.650858 231.776336 
L 315.417415 242.884757 
L 321.183972 253.519907 
L 326.950529 263.711401 
L 333.077496 274.084126 
L 339.204463 284.016611 
L 345.33143 293.5363 
L 351.818807 303.19402 
L 358.306184 312.444667 
L 364.79356 321.313447 
L 371.641347 330.286227 
L 378.489134 338.884357 
L 385.33692 347.130822 
L 392.545117 355.454613 
L 399.753313 363.434834 
L 406.961509 371.092324 
L 414.169706 378.446275 
L 414.169706 378.446275 
" clip-path="url(#p65d7da9564)" style="fill: none; stroke: #ff7f0e; stroke-width: 1.5; stroke-linecap: square"/>
   </g>
   <g id="line2d_25">
    <path d="M 304.907037 -1 
L 308.930038 21.955852 
L 313.254956 45.467325 
L 317.940284 69.66199 
L 322.625611 92.617803 
L 327.310939 114.417922 
L 331.996267 135.138642 
L 336.681594 154.850062 
L 341.366922 173.616686 
L 346.05225 191.497942 
L 350.737577 208.54866 
L 355.422905 224.819491 
L 360.468642 241.523398 
L 365.51438 257.43113 
L 370.560117 272.592491 
L 375.605855 287.053454 
L 380.651592 300.856505 
L 385.69733 314.040956 
L 390.743067 326.643227 
L 396.149215 339.537945 
L 401.555362 351.841566 
L 406.961509 363.589672 
L 412.367657 374.815211 
L 414.169706 378.446275 
L 414.169706 378.446275 
" clip-path="url(#p65d7da9564)" style="fill: none; stroke: #2ca02c; stroke-width: 1.5; stroke-linecap: square"/>
   </g>
   <g id="line2d_26">
    <path d="M 354.671508 -1 
L 357.945774 30.15413 
L 361.549872 62.581767 
L 365.15397 93.184067 
L 369.118478 124.883561 
L 373.082986 154.670926 
L 377.047494 182.682916 
L 381.012002 209.045009 
L 384.97651 233.872457 
L 388.941018 257.271228 
L 392.905526 279.338852 
L 396.870034 300.165178 
L 400.834542 319.833057 
L 404.799051 338.418963 
L 408.763559 355.993541 
L 412.728067 372.622115 
L 414.169706 378.446275 
L 414.169706 378.446275 
" clip-path="url(#p65d7da9564)" style="fill: none; stroke: #d62728; stroke-width: 1.5; stroke-linecap: square"/>
   </g>
   <g id="line2d_27">
    <path d="M 137.58972 -1 
L 140.979061 13.050235 
L 144.943569 28.514083 
L 148.908077 43.033943 
L 152.872585 56.702106 
L 156.837093 69.598707 
L 160.801601 81.793709 
L 165.126519 94.369114 
L 169.451437 106.252387 
L 173.776355 117.504775 
L 178.461683 129.045304 
L 183.14701 139.968931 
L 187.832338 150.32873 
L 192.517666 160.171592 
L 197.563403 170.241107 
L 202.609141 179.805391 
L 207.654878 188.905328 
L 213.061025 198.181247 
L 218.467173 207.0057 
L 223.87332 215.414158 
L 229.639877 223.960303 
L 235.406434 232.103517 
L 241.172992 239.874497 
L 247.299958 247.754039 
L 253.426925 255.274 
L 259.914302 262.873836 
L 266.401679 270.128534 
L 273.249466 277.439817 
L 280.097252 284.421545 
L 287.305449 291.441089 
L 294.513645 298.147274 
L 302.082251 304.876258 
L 309.650858 311.308281 
L 317.579874 317.751175 
L 325.50889 323.913396 
L 333.798316 330.077091 
L 342.448151 336.226822 
L 351.097987 342.109179 
L 360.108233 347.972597 
L 369.478888 353.805075 
L 379.209953 359.595948 
L 389.301428 365.335814 
L 399.753313 371.016447 
L 410.565608 376.63072 
L 414.169706 378.446275 
L 414.169706 378.446275 
" clip-path="url(#p65d7da9564)" style="fill: none; stroke: #9467bd; stroke-width: 1.5; stroke-linecap: square"/>
   </g>
   <g id="line2d_28">
    <path d="M 71.346714 -1 
L 73.222015 14.825514 
L 75.384474 31.157667 
L 77.546933 45.806497 
L 79.709391 59.060614 
L 82.23226 73.054608 
L 84.755129 85.723235 
L 87.277998 97.276591 
L 89.800866 107.87982 
L 92.684145 119.002507 
L 95.567424 129.213601 
L 98.450702 138.639341 
L 101.694391 148.43137 
L 104.938079 157.477236 
L 108.181767 165.873422 
L 111.425456 173.69937 
L 115.029554 181.80613 
L 118.633652 189.365913 
L 122.23775 196.441755 
L 126.202258 203.729303 
L 130.166766 210.554837 
L 134.491684 217.532713 
L 138.816602 224.075385 
L 143.14152 230.229396 
L 147.826848 236.503528 
L 152.512175 242.411085 
L 157.557913 248.405246 
L 162.60365 254.056322 
L 168.009798 259.768634 
L 173.415945 265.161578 
L 179.182502 270.596624 
L 184.949059 275.735474 
L 191.076026 280.90204 
L 197.563403 286.074364 
L 204.05078 290.96909 
L 210.898567 295.862949 
L 218.106763 300.739975 
L 225.675369 305.586452 
L 233.604385 310.390719 
L 241.893811 315.142978 
L 250.543647 319.835102 
L 259.553892 324.460445 
L 268.924548 329.01367 
L 278.655613 333.490583 
L 288.747088 337.887985 
L 299.198973 342.203539 
L 310.371677 346.572903 
L 321.904792 350.843554 
L 334.158725 355.139415 
L 346.773069 359.325855 
L 360.108233 363.515903 
L 374.164216 367.694986 
L 388.941018 371.850571 
L 404.438641 375.971991 
L 414.169706 378.446275 
L 414.169706 378.446275 
" clip-path="url(#p65d7da9564)" style="fill: none; stroke: #8c564b; stroke-width: 1.5; stroke-linecap: square"/>
   </g>
   <g id="patch_3">
    <path d="M 54.120294 385.72 
L 54.120294 14.76 
" style="fill: none; stroke: #000000; stroke-width: 0.8; stroke-linejoin: miter; stroke-linecap: square"/>
   </g>
   <g id="patch_4">
    <path d="M 414.169706 385.72 
L 414.169706 14.76 
" style="fill: none; stroke: #000000; stroke-width: 0.8; stroke-linejoin: miter; stroke-linecap: square"/>
   </g>
   <g id="patch_5">
    <path d="M 54.120294 385.72 
L 414.169706 385.72 
" style="fill: none; stroke: #000000; stroke-width: 0.8; stroke-linejoin: miter; stroke-linecap: square"/>
   </g>
   <g id="patch_6">
    <path d="M 54.120294 14.76 
L 414.169706 14.76 
" style="fill: none; stroke: #000000; stroke-width: 0.8; stroke-linejoin: miter; stroke-linecap: square"/>
   </g>
   <g id="legend_1">
    <g id="patch_7">
     <path d="M 179.544706 168.47 
L 402.969706 168.47 
Q 406.169706 168.47 406.169706 165.27 
L 406.169706 25.96 
Q 406.169706 22.76 402.969706 22.76 
L 179.544706 22.76 
Q 176.344706 22.76 176.344706 25.96 
L 176.344706 165.27 
Q 176.344706 168.47 179.544706 168.47 
z
" style="fill: #ffffff; opacity: 0.8; stroke: #cccccc; stroke-linejoin: miter"/>
    </g>
    <g id="line2d_29">
     <path d="M 182.744706 35.7175 
L 198.744706 35.7175 
L 214.744706 35.7175 
" style="fill: none; stroke: #1f77b4; stroke-width: 1.5; stroke-linecap: square"/>
    </g>
    <g id="text_14">
     <!-- α = 0 -->
     <g transform="translate(227.544706 41.3175) scale(0.16 -0.16)">
      <defs>
       <path id="DejaVuSans-3b1" d="M 2644 1628 
L 2506 2350 
Q 2366 3091 1809 3091 
Q 1391 3091 1200 2747 
Q 959 2316 959 1747 
Q 959 1059 1194 731 
Q 1431 397 1809 397 
Q 2228 397 2453 1063 
L 2644 1628 
z
M 2966 2584 
L 3275 3500 
L 3788 3500 
L 3147 1603 
L 3272 919 
Q 3300 766 3409 638 
Q 3538 488 3638 488 
L 3913 488 
L 3913 0 
L 3569 0 
Q 3275 0 3013 263 
Q 2884 394 2831 669 
Q 2688 322 2394 50 
Q 2256 -78 1809 -78 
Q 1075 -78 719 397 
Q 353 888 353 1747 
Q 353 2666 750 3097 
Q 1191 3578 1809 3578 
Q 2781 3578 2966 2584 
z
" transform="scale(0.015625)"/>
       <path id="DejaVuSans-3d" d="M 678 2906 
L 4684 2906 
L 4684 2381 
L 678 2381 
L 678 2906 
z
M 678 1631 
L 4684 1631 
L 4684 1100 
L 678 1100 
L 678 1631 
z
" transform="scale(0.015625)"/>
      </defs>
      <use xlink:href="#DejaVuSans-3b1"/>
      <use xlink:href="#DejaVuSans-20" x="65.917969"/>
      <use xlink:href="#DejaVuSans-3d" x="97.705078"/>
      <use xlink:href="#DejaVuSans-20" x="181.494141"/>
      <use xlink:href="#DejaVuSans-30" x="213.28125"/>
     </g>
    </g>
    <g id="line2d_30">
     <path d="M 182.744706 59.2025 
L 198.744706 59.2025 
L 214.744706 59.2025 
" style="fill: none; stroke: #ff7f0e; stroke-width: 1.5; stroke-linecap: square"/>
    </g>
    <g id="text_15">
     <!-- α = 1 (inverse) -->
     <g transform="translate(227.544706 64.8025) scale(0.16 -0.16)">
      <defs>
       <path id="DejaVuSans-76" d="M 191 3500 
L 800 3500 
L 1894 563 
L 2988 3500 
L 3597 3500 
L 2284 0 
L 1503 0 
L 191 3500 
z
" transform="scale(0.015625)"/>
      </defs>
      <use xlink:href="#DejaVuSans-3b1"/>
      <use xlink:href="#DejaVuSans-20" x="65.917969"/>
      <use xlink:href="#DejaVuSans-3d" x="97.705078"/>
      <use xlink:href="#DejaVuSans-20" x="181.494141"/>
      <use xlink:href="#DejaVuSans-31" x="213.28125"/>
      <use xlink:href="#DejaVuSans-20" x="276.904297"/>
      <use xlink:href="#DejaVuSans-28" x="308.691406"/>
      <use xlink:href="#DejaVuSans-69" x="347.705078"/>
      <use xlink:href="#DejaVuSans-6e" x="375.488281"/>
      <use xlink:href="#DejaVuSans-76" x="438.867188"/>
      <use xlink:href="#DejaVuSans-65" x="498.046875"/>
      <use xlink:href="#DejaVuSans-72" x="559.570312"/>
      <use xlink:href="#DejaVuSans-73" x="600.683594"/>
      <use xlink:href="#DejaVuSans-65" x="652.783203"/>
      <use xlink:href="#DejaVuSans-29" x="714.306641"/>
     </g>
    </g>
    <g id="line2d_31">
     <path d="M 182.744706 82.6875 
L 198.744706 82.6875 
L 214.744706 82.6875 
" style="fill: none; stroke: #2ca02c; stroke-width: 1.5; stroke-linecap: square"/>
    </g>
    <g id="text_16">
     <!-- α = 2 -->
     <g transform="translate(227.544706 88.2875) scale(0.16 -0.16)">
      <use xlink:href="#DejaVuSans-3b1"/>
      <use xlink:href="#DejaVuSans-20" x="65.917969"/>
      <use xlink:href="#DejaVuSans-3d" x="97.705078"/>
      <use xlink:href="#DejaVuSans-20" x="181.494141"/>
      <use xlink:href="#DejaVuSans-32" x="213.28125"/>
     </g>
    </g>
    <g id="line2d_32">
     <path d="M 182.744706 106.1725 
L 198.744706 106.1725 
L 214.744706 106.1725 
" style="fill: none; stroke: #d62728; stroke-width: 1.5; stroke-linecap: square"/>
    </g>
    <g id="text_17">
     <!-- α = 4 -->
     <g transform="translate(227.544706 111.7725) scale(0.16 -0.16)">
      <use xlink:href="#DejaVuSans-3b1"/>
      <use xlink:href="#DejaVuSans-20" x="65.917969"/>
      <use xlink:href="#DejaVuSans-3d" x="97.705078"/>
      <use xlink:href="#DejaVuSans-20" x="181.494141"/>
      <use xlink:href="#DejaVuSans-34" x="213.28125"/>
     </g>
    </g>
    <g id="line2d_33">
     <path d="M 182.744706 129.6575 
L 198.744706 129.6575 
L 214.744706 129.6575 
" style="fill: none; stroke: #9467bd; stroke-width: 1.5; stroke-linecap: square"/>
    </g>
    <g id="text_18">
     <!-- α = 0.5 (sqrt inverse) -->
     <g transform="translate(227.544706 135.2575) scale(0.16 -0.16)">
      <defs>
       <path id="DejaVuSans-35" d="M 691 4666 
L 3169 4666 
L 3169 4134 
L 1269 4134 
L 1269 2991 
Q 1406 3038 1543 3061 
Q 1681 3084 1819 3084 
Q 2600 3084 3056 2656 
Q 3513 2228 3513 1497 
Q 3513 744 3044 326 
Q 2575 -91 1722 -91 
Q 1428 -91 1123 -41 
Q 819 9 494 109 
L 494 744 
Q 775 591 1075 516 
Q 1375 441 1709 441 
Q 2250 441 2565 725 
Q 2881 1009 2881 1497 
Q 2881 1984 2565 2268 
Q 2250 2553 1709 2553 
Q 1456 2553 1204 2497 
Q 953 2441 691 2322 
L 691 4666 
z
" transform="scale(0.015625)"/>
       <path id="DejaVuSans-71" d="M 947 1747 
Q 947 1113 1208 752 
Q 1469 391 1925 391 
Q 2381 391 2643 752 
Q 2906 1113 2906 1747 
Q 2906 2381 2643 2742 
Q 2381 3103 1925 3103 
Q 1469 3103 1208 2742 
Q 947 2381 947 1747 
z
M 2906 525 
Q 2725 213 2448 61 
Q 2172 -91 1784 -91 
Q 1150 -91 751 415 
Q 353 922 353 1747 
Q 353 2572 751 3078 
Q 1150 3584 1784 3584 
Q 2172 3584 2448 3432 
Q 2725 3281 2906 2969 
L 2906 3500 
L 3481 3500 
L 3481 -1331 
L 2906 -1331 
L 2906 525 
z
" transform="scale(0.015625)"/>
      </defs>
      <use xlink:href="#DejaVuSans-3b1"/>
      <use xlink:href="#DejaVuSans-20" x="65.917969"/>
      <use xlink:href="#DejaVuSans-3d" x="97.705078"/>
      <use xlink:href="#DejaVuSans-20" x="181.494141"/>
      <use xlink:href="#DejaVuSans-30" x="213.28125"/>
      <use xlink:href="#DejaVuSans-2e" x="276.904297"/>
      <use xlink:href="#DejaVuSans-35" x="308.691406"/>
      <use xlink:href="#DejaVuSans-20" x="372.314453"/>
      <use xlink:href="#DejaVuSans-28" x="404.101562"/>
      <use xlink:href="#DejaVuSans-73" x="443.115234"/>
      <use xlink:href="#DejaVuSans-71" x="495.214844"/>
      <use xlink:href="#DejaVuSans-72" x="558.691406"/>
      <use xlink:href="#DejaVuSans-74" x="599.804688"/>
      <use xlink:href="#DejaVuSans-20" x="639.013672"/>
      <use xlink:href="#DejaVuSans-69" x="670.800781"/>
      <use xlink:href="#DejaVuSans-6e" x="698.583984"/>
      <use xlink:href="#DejaVuSans-76" x="761.962891"/>
      <use xlink:href="#DejaVuSans-65" x="821.142578"/>
      <use xlink:href="#DejaVuSans-72" x="882.666016"/>
      <use xlink:href="#DejaVuSans-73" x="923.779297"/>
      <use xlink:href="#DejaVuSans-65" x="975.878906"/>
      <use xlink:href="#DejaVuSans-29" x="1037.402344"/>
     </g>
    </g>
    <g id="line2d_34">
     <path d="M 182.744706 153.1425 
L 198.744706 153.1425 
L 214.744706 153.1425 
" style="fill: none; stroke: #8c564b; stroke-width: 1.5; stroke-linecap: square"/>
    </g>
    <g id="text_19">
     <!-- α = 0.25 -->
     <g transform="translate(227.544706 158.7425) scale(0.16 -0.16)">
      <use xlink:href="#DejaVuSans-3b1"/>
      <use xlink:href="#DejaVuSans-20" x="65.917969"/>
      <use xlink:href="#DejaVuSans-3d" x="97.705078"/>
      <use xlink:href="#DejaVuSans-20" x="181.494141"/>
      <use xlink:href="#DejaVuSans-30" x="213.28125"/>
      <use xlink:href="#DejaVuSans-2e" x="276.904297"/>
      <use xlink:href="#DejaVuSans-32" x="308.691406"/>
      <use xlink:href="#DejaVuSans-35" x="372.314453"/>
     </g>
    </g>
   </g>
  </g>
 </g>
 <defs>
  <clipPath id="p65d7da9564">
   <rect x="54.120294" y="14.76" width="360.049412" height="370.96"/>
  </clipPath>
 </defs>
</svg>
